HIERARCHY
ROOT Hips
{
	OFFSET 0.000000 0.000000 0.000000
	CHANNELS 6 Xposition Yposition Zposition Zrotation Yrotation Xrotation 
	JOINT LHipJoint
	{
		OFFSET 0.000000 0.000000 0.000000
		CHANNELS 3 Zrotation Yrotation Xrotation
		JOINT LeftUpLeg
		{
			OFFSET 1.363060 -1.794630 0.839290
			CHANNELS 3 Zrotation Yrotation Xrotation
			JOINT LeftLeg
			{
				OFFSET 2.448110 -6.726130 0.000000
				CHANNELS 3 Zrotation Yrotation Xrotation
				JOINT LeftFoot
				{
					OFFSET 2.562200 -7.039590 0.000000
					CHANNELS 3 Zrotation Yrotation Xrotation
					JOINT LeftToeBase
					{
						OFFSET 0.157640 -0.433110 2.322550
						CHANNELS 3 Zrotation Yrotation Xrotation
						End Site
						{
							OFFSET 0.000000 0.000000 0.000000
						}
					}
				}
			}
		}
	}
	JOINT RHipJoint
	{
		OFFSET 0.000000 0.000000 0.000000
		CHANNELS 3 Zrotation Yrotation Xrotation
		JOINT RightUpLeg
		{
			OFFSET -1.305520 -1.794630 0.839290
			CHANNELS 3 Zrotation Yrotation Xrotation
			JOINT RightLeg
			{
				OFFSET -2.542530 -6.985550 0.000000
				CHANNELS 3 Zrotation Yrotation Xrotation
				JOINT RightFoot
				{
					OFFSET -2.568260 -7.056230 0.000000
					CHANNELS 3 Zrotation Yrotation Xrotation
					JOINT RightToeBase
					{
						OFFSET -0.164730 -0.452590 2.363150
						CHANNELS 3 Zrotation Yrotation Xrotation
						End Site
						{
							OFFSET 0.000000 0.000000 0.000000
						}
					}
				}
			}
		}
	}
	JOINT LowerBack
	{
		OFFSET 0.000000 0.000000 0.000000
		CHANNELS 3 Zrotation Yrotation Xrotation
		JOINT Spine
		{
			OFFSET 0.028270 2.035590 -0.193380
			CHANNELS 3 Zrotation Yrotation Xrotation
			JOINT Spine1
			{
				OFFSET 0.056720 2.048850 -0.042750
				CHANNELS 3 Zrotation Yrotation Xrotation
				JOINT Neck
				{
					OFFSET 0.000000 0.000000 0.000000
					CHANNELS 3 Zrotation Yrotation Xrotation
					JOINT Neck1
					{
						OFFSET -0.054170 1.746240 0.172020
						CHANNELS 3 Zrotation Yrotation Xrotation
						JOINT Head
						{
							OFFSET 0.104070 1.761360 -0.123970
							CHANNELS 3 Zrotation Yrotation Xrotation
							End Site
							{
								OFFSET 0.000000 0.000000 0.000000
							}
						}
					}
				}
				JOINT LeftShoulder
				{
					OFFSET 0.000000 0.000000 0.000000
					CHANNELS 3 Zrotation Yrotation Xrotation
					JOINT LeftArm
					{
						OFFSET 3.362410 1.200890 -0.311210
						CHANNELS 3 Zrotation Yrotation Xrotation
						JOINT LeftForeArm
						{
							OFFSET 4.983000 -0.000000 -0.000000
							CHANNELS 3 Zrotation Yrotation Xrotation
							JOINT LeftHand
							{
								OFFSET 3.483560 -0.000000 -0.000000
								CHANNELS 3 Zrotation Yrotation Xrotation
								JOINT LeftFingerBase
								{
									OFFSET 0.000000 0.000000 0.000000
									CHANNELS 3 Zrotation Yrotation Xrotation
									JOINT LeftHandIndex1
									{
										OFFSET 0.715260 -0.000000 -0.000000
										CHANNELS 3 Zrotation Yrotation Xrotation
										End Site
										{
											OFFSET 0.000000 0.000000 0.000000
										}
									}
								}
								JOINT LThumb
								{
									OFFSET 0.000000 0.000000 0.000000
									CHANNELS 3 Zrotation Yrotation Xrotation
									End Site
									{
										OFFSET 0.000000 0.000000 0.000000
									}
								}
							}
						}
					}
				}
				JOINT RightShoulder
				{
					OFFSET 0.000000 0.000000 0.000000
					CHANNELS 3 Zrotation Yrotation Xrotation
					JOINT RightArm
					{
						OFFSET -3.136600 1.374050 -0.404650
						CHANNELS 3 Zrotation Yrotation Xrotation
						JOINT RightForeArm
						{
							OFFSET -5.241900 -0.000000 -0.000000
							CHANNELS 3 Zrotation Yrotation Xrotation
							JOINT RightHand
							{
								OFFSET -3.444170 -0.000000 -0.000000
								CHANNELS 3 Zrotation Yrotation Xrotation
								JOINT RightFingerBase
								{
									OFFSET 0.000000 0.000000 0.000000
									CHANNELS 3 Zrotation Yrotation Xrotation
									JOINT RightHandIndex1
									{
										OFFSET -0.622530 -0.000000 -0.000000
										CHANNELS 3 Zrotation Yrotation Xrotation
										End Site
										{
											OFFSET 0.000000 0.000000 0.000000
										}
									}
								}
								JOINT RThumb
								{
									OFFSET 0.000000 0.000000 0.000000
									CHANNELS 3 Zrotation Yrotation Xrotation
									End Site
									{
										OFFSET 0.000000 0.000000 0.000000
									}
								}
							}
						}
					}
				}
			}
		}
	}
}
MOTION
Frames: 12
Frame Time: 0.008333
2.524113 17.269255 0.454726 6.871208 -38.724347 2.112167 -7.745362 2.498860 8.700168 -6.431999 -19.363775 -14.021961 -3.020362 -1.251388 -1.633837 -0.325686 1.258054 11.219951 1.024100 0.000001 -49.823399 12.765924 -3.049743 -2.305026 -1.447571 -34.533787 2.662580 0.927493 1.119050 -3.846372 -4.324723 -26.896912 2.738521 -6.551300 -0.000000 -56.687100 -7.058839 1.901411 -8.952948 -2.143647 2.363175 -4.237022 -3.999683 2.300309 0.843148 -3.589982 -9.579410 -8.603270 -0.073810 0.007555 -0.177353 0.000000 0.000000 0.000000 6.042288 14.829507 -0.593097 -19.105934 -11.739465 -7.402487 179.885759 -70.321385 -179.990515 -2.541910 -6.370024 0.164544 0.155743 0.628427 0.000000 0.000000 0.000000 0.000000 0.000000 0.000000 0.000000 -11.231067 -2.268789 2.362391 -6.484917 37.746782 -38.212686 -1.316107 12.837418 -0.095912 -15.185195 6.971241 -1.022556 0.333425 -0.522687 -0.000000 0.000000 0.000000 0.000000 0.000000 0.000000 0.000000 
2.526400 17.264958 0.447872 6.778799 -38.299185 2.238093 -7.697649 2.520590 8.809213 -6.243998 -19.929451 -14.081418 -3.007373 -1.237023 -1.820677 -0.315304 1.293104 11.349003 1.034799 -0.000000 -49.829700 12.760667 -2.987384 -2.367645 -1.295786 -34.559686 2.691487 0.896472 1.137759 -3.753971 -4.411238 -27.364094 2.583038 -6.620200 -0.000000 -56.460800 -7.102636 1.621842 -8.975860 -2.129054 2.088590 -4.249090 -3.969264 2.027018 0.835658 -3.419286 -9.581803 -8.404089 -0.090899 0.002667 -0.119132 0.000000 0.000000 0.000000 6.061704 14.735437 -0.488781 -19.040073 -10.949352 -7.503651 179.924765 -69.557577 -179.989259 -2.648968 -6.338075 0.170311 0.155812 0.630090 -0.000000 0.000000 0.000000 0.000000 0.000000 0.000000 0.000000 -11.142553 -2.314663 2.039906 -5.847126 36.880404 -33.905476 -1.344563 18.326531 -0.093415 -13.649506 6.493663 -0.859091 0.277131 -0.530348 -0.000000 0.000000 0.000000 0.000000 0.000000 0.000000 0.000000 
2.528494 17.261077 0.440069 6.702570 -37.992756 2.332321 -7.656326 2.547152 8.887914 -6.096892 -20.332491 -14.107614 -2.997727 -1.225145 -2.019893 -0.310170 1.283559 11.482347 1.031500 0.000000 -49.863400 12.757225 -2.925401 -2.404879 -1.149283 -34.481201 2.714105 0.857080 1.155378 -3.652645 -4.500036 -27.822791 2.409132 -6.678101 0.000000 -56.209000 -7.154414 1.344472 -8.988958 -2.114171 1.817276 -4.259739 -3.928305 1.755462 0.827398 -3.259899 -9.537587 -8.176844 -0.119443 -0.003595 -0.053594 0.000000 0.000000 0.000000 6.085441 14.732669 -0.390908 -19.008415 -10.234835 -7.600514 179.967076 -68.887504 -179.988016 -2.752831 -6.297742 0.175579 0.155580 0.630838 -0.000000 0.000000 0.000000 0.000000 0.000000 0.000000 0.000000 -10.988341 -2.366897 1.695815 -5.382342 36.149655 -31.003350 -1.393698 23.468437 -0.091492 -12.530606 6.458205 -0.783843 0.228206 -0.541865 -0.000000 0.000000 0.000000 0.000000 0.000000 0.000000 0.000000 
2.530279 17.257854 0.431529 6.634102 -37.818360 2.405453 -7.625627 2.577300 8.928983 -5.994046 -20.528075 -14.112854 -2.992349 -1.216546 -2.216383 -0.313350 1.204328 11.613071 1.006000 -0.000000 -49.926500 12.755198 -2.869805 -2.411341 -0.996373 -34.294436 2.724338 0.812175 1.172273 -3.561520 -4.587441 -28.256749 2.231600 -6.727000 -0.000000 -55.951799 -7.209446 1.087301 -8.993765 -2.101107 1.566056 -4.266835 -3.887377 1.503275 0.826075 -3.101333 -9.557721 -7.938283 -0.150212 -0.010223 0.014806 0.000000 0.000000 0.000000 6.127803 14.819033 -0.309839 -19.028681 -9.648335 -7.689369 -179.991918 -68.335161 -179.986880 -2.847068 -6.247111 0.179950 0.155281 0.630781 -0.000000 0.000000 0.000000 0.000000 0.000000 0.000000 0.000000 -10.797126 -2.514672 1.319136 -4.926319 35.636412 -29.118038 -1.455402 28.235071 -0.091284 -11.825332 6.666877 -0.761219 0.188335 -0.554372 -0.000000 0.000000 0.000000 0.000000 0.000000 0.000000 0.000000 
2.531620 17.255432 0.422325 6.571553 -37.780295 2.463558 -7.604361 2.609011 8.939030 -5.922763 -20.550525 -14.083626 -2.990362 -1.214299 -2.441013 -0.320841 1.102368 11.752101 0.974100 -0.000000 -50.014199 12.754861 -2.822885 -2.390092 -0.839694 -34.019241 2.713615 0.766730 1.187298 -3.476268 -4.667322 -28.631040 2.049072 -6.755400 0.000000 -55.688699 -7.271578 0.862100 -8.993245 -2.092507 1.346583 -4.270520 -3.850913 1.282338 0.833594 -2.931805 -9.672840 -7.696642 -0.180371 -0.016853 0.083763 0.000000 0.000000 0.000000 6.204818 14.979598 -0.250144 -19.115629 -9.212690 -7.765247 -179.954758 -67.908361 -179.985894 -2.926961 -6.187306 0.183120 0.154937 0.630094 -0.000000 0.000000 0.000000 0.000000 0.000000 0.000000 0.000000 -10.575798 -2.773555 0.913058 -4.376031 35.282313 -27.901715 -1.517608 32.714312 -0.093427 -11.516735 6.955256 -0.770417 0.157559 -0.566112 -0.000000 0.000000 0.000000 0.000000 0.000000 0.000000 0.000000 
2.532510 17.253962 0.412875 6.504553 -37.873627 2.518513 -7.594527 2.642072 8.917864 -5.877670 -20.385753 -14.036932 -2.991649 -1.217916 -2.677530 -0.334417 0.959584 11.892755 0.929400 0.000000 -50.125800 12.755256 -2.789046 -2.339190 -0.668252 -33.664544 2.680884 0.723568 1.201771 -3.416071 -4.737120 -28.939310 1.875913 -6.768700 -0.000000 -55.431899 -7.336081 0.675667 -8.992986 -2.088297 1.165045 -4.271856 -3.820540 1.098990 0.850832 -2.744803 -9.892719 -7.458617 -0.208520 -0.023263 0.151426 0.000000 0.000000 0.000000 6.319726 15.198381 -0.213790 -19.271671 -8.937133 -7.823037 -179.923136 -67.605686 -179.985129 -2.985346 -6.120939 0.184595 0.154418 0.628964 -0.000000 0.000000 0.000000 0.000000 0.000000 0.000000 0.000000 -10.329090 -3.143439 0.486632 -3.690406 35.027225 -27.113760 -1.568671 36.965719 -0.098135 -11.585468 7.249069 -0.805032 0.135452 -0.576690 -0.000000 0.000000 0.000000 0.000000 0.000000 0.000000 0.000000 
2.533027 17.253484 0.403412 6.428265 -38.086220 2.578632 -7.596271 2.675883 8.870502 -5.847740 -20.054643 -13.981117 -2.995109 -1.226968 -2.922775 -0.352959 0.784578 12.034085 0.874699 0.000000 -50.255300 12.755073 -2.770014 -2.261946 -0.478678 -33.250542 2.627196 0.685562 1.216375 -3.390498 -4.794182 -29.174466 1.723470 -6.771100 0.000001 -55.192000 -7.398854 0.529380 -8.996385 -2.087737 1.022481 -4.271915 -3.795987 0.954281 0.876932 -2.538245 -10.201559 -7.229467 -0.234251 -0.029332 0.216322 0.000000 0.000000 0.000000 6.466596 15.457319 -0.199664 -19.487407 -8.812578 -7.862110 -179.897706 -67.415074 -179.984643 -3.014744 -6.053361 0.184372 0.153502 0.627637 -0.000000 0.000000 0.000000 0.000000 0.000000 0.000000 0.000000 -10.063043 -3.602281 0.054128 -2.857104 34.798290 -26.587503 -1.597781 41.039350 -0.105220 -11.987622 7.509085 -0.860654 0.121053 -0.585998 -0.000000 0.000000 0.000000 0.000000 0.000000 0.000000 0.000000 
2.533470 17.253963 0.394073 6.338383 -38.400129 2.648535 -7.608573 2.709215 8.804467 -5.820639 -19.600078 -13.916042 -2.999035 -1.241071 -3.184095 -0.373581 0.602497 12.178159 0.817800 0.000000 -50.400000 12.752492 -2.765064 -2.165093 -0.272897 -32.799675 2.557469 0.654938 1.231498 -3.402616 -4.836737 -29.331046 1.593868 -6.762000 0.000000 -54.965600 -7.456112 0.420436 -9.003964 -2.089660 0.915892 -4.271240 -3.776387 0.845189 0.910462 -2.313418 -10.573111 -7.013966 -0.257064 -0.034932 0.277100 0.000000 0.000000 0.000000 6.632919 15.740454 -0.204653 -19.746146 -8.821906 -7.885600 -179.878348 -67.322410 -179.984475 -3.009847 -5.992293 0.182253 0.152000 0.626395 -0.000000 0.000000 0.000000 0.000000 0.000000 0.000000 0.000000 -9.787242 -4.120153 -0.368738 -1.878527 34.535512 -26.210649 -1.596397 44.965491 -0.114099 -12.643605 7.728985 -0.932677 0.112792 -0.594129 -0.000000 0.000000 0.000000 0.000000 0.000000 0.000000 0.000000 
2.534158 17.255328 0.385150 6.228994 -38.790858 2.736303 -7.632446 2.742047 8.722026 -5.791630 -19.028772 -13.869095 -3.002542 -1.256880 -3.423546 -0.397712 0.388728 12.309326 0.750100 -0.000000 -50.549600 12.745403 -2.774190 -2.052710 -0.045642 -32.333076 2.473491 0.633018 1.248132 -3.458036 -4.864880 -29.419239 1.500523 -6.752100 -0.000000 -54.779100 -7.498256 0.343007 -9.017155 -2.091814 0.838776 -4.270376 -3.762071 0.765299 0.950878 -2.071934 -10.985962 -6.817204 -0.278386 -0.040084 0.332410 0.000000 0.000000 0.000000 6.802104 16.021716 -0.225793 -20.025983 -8.924455 -7.898932 -179.864870 -67.296665 -179.984674 -2.965386 -5.942576 0.178139 0.149782 0.625394 0.000000 0.000000 0.000000 0.000000 0.000000 0.000000 0.000000 -9.499164 -4.672601 -0.762983 -0.808581 34.199178 -25.889913 -1.559228 48.743075 -0.123986 -13.467393 7.903982 -1.014994 0.109358 -0.600850 -0.000000 0.000000 0.000000 0.000000 0.000000 0.000000 0.000000 
2.535422 17.257381 0.376495 6.103356 -39.236601 2.838026 -7.664282 2.772671 8.634089 -5.748192 -18.417334 -13.823524 -3.003192 -1.274330 -3.665408 -0.419482 0.199215 12.437212 0.689700 0.000000 -50.699301 12.732970 -2.792858 -1.936227 0.190729 -31.874868 2.384949 0.620260 1.265596 -3.548411 -4.878372 -29.438474 1.438497 -6.738300 0.000000 -54.617200 -7.526339 0.288878 -9.031320 -2.093530 0.783306 -4.268521 -3.751755 0.706761 0.997098 -1.817999 -11.407743 -6.643221 -0.297716 -0.044672 0.381098 0.000000 0.000000 0.000000 6.959883 16.291234 -0.258178 -20.306915 -9.094074 -7.909650 -179.856290 -67.322549 -179.985239 -2.881316 -5.911379 0.172327 0.146792 0.624866 -0.000000 0.000000 0.000000 0.000000 0.000000 0.000000 0.000000 -9.208397 -5.225813 -1.114049 0.325388 33.756699 -25.580275 -1.485443 52.368935 -0.133751 -14.329832 8.037623 -1.097802 0.108695 -0.606070 -0.000000 0.000000 0.000000 0.000000 0.000000 0.000000 0.000000 
2.537514 17.259937 0.368054 5.964682 -39.714428 2.952345 -7.701924 2.800390 8.546640 -5.685620 -17.809336 -13.781620 -2.999550 -1.291723 -3.902041 -0.436633 0.051114 12.556429 0.642100 0.000000 -50.843800 12.714740 -2.817377 -1.823420 0.429915 -31.442838 2.298535 0.616329 1.283943 -3.668985 -4.878502 -29.397309 1.404446 -6.721400 -0.000000 -54.477500 -7.538909 0.249077 -9.042987 -2.094020 0.740638 -4.264855 -3.745631 0.660856 1.049061 -1.552541 -11.817460 -6.496009 -0.316746 -0.048752 0.422085 0.000000 0.000000 0.000000 7.095367 16.535092 -0.297756 -20.572094 -9.296461 -7.924632 -179.851619 -67.377380 -179.986158 -2.760078 -5.901714 0.164920 0.143085 0.624902 -0.000000 0.000000 0.000000 0.000000 0.000000 0.000000 0.000000 -8.907208 -5.757324 -1.408880 1.458743 33.197288 -25.242416 -1.378438 55.826382 -0.142321 -15.117768 8.127529 -1.170998 0.109262 -0.609530 -0.000000 0.000000 0.000000 0.000000 0.000000 0.000000 0.000000 
2.540815 17.262775 0.359814 5.814001 -40.202770 3.077362 -7.744356 2.824769 8.461728 -5.605577 -17.224833 -13.757189 -2.990807 -1.306220 -4.104798 -0.449043 -0.061841 12.653920 0.605000 -0.000000 -50.970700 12.690371 -2.844449 -1.720015 0.668065 -31.050191 2.215354 0.620299 1.302542 -3.807791 -4.867471 -29.310031 1.399669 -6.705900 0.000000 -54.374999 -7.532935 0.215570 -9.048275 -2.092128 0.702700 -4.258738 -3.743693 0.619670 1.105727 -1.279461 -12.203992 -6.377539 -0.336928 -0.052404 0.454911 0.000000 0.000000 0.000000 7.197657 16.732275 -0.340727 -20.806237 -9.486452 -7.950909 -179.849802 -67.434473 -179.987392 -2.606354 -5.913343 0.156216 0.138779 0.625438 -0.000000 0.000000 0.000000 0.000000 0.000000 0.000000 0.000000 -8.590999 -6.253562 -1.639158 2.535629 32.526062 -24.854988 -1.245312 59.096573 -0.148741 -15.728851 8.175844 -1.225483 0.109695 -0.611141 -0.000000 0.000000 0.000000 0.000000 0.000000 0.000000 0.000000 
